<svg width="269" height="274" viewBox="0 0 269 274" fill="none" xmlns="http://www.w3.org/2000/svg">
<g filter="url(#filter0_d_39_3461)">
<path fill-rule="evenodd" clip-rule="evenodd" d="M248.277 7.75459C231.629 -2.34867 205.451 -2.33924 188.433 16.2032C183.834 21.2145 180.05 25.7491 176.615 29.8662L176.614 29.8675C174.855 31.9761 173.187 33.9752 171.547 35.8728C166.717 41.4632 162.16 46.1408 156.332 49.9961C144.673 57.7089 128.022 62.0701 94.1136 64.1252C77.3563 65.1408 66.4166 73.9455 61.1221 86.4181C60.2885 88.3818 59.5945 90.4376 59.0399 92.5695C65.0044 85.1474 74 80.2609 86.0393 79.5308C118.234 77.5787 133.832 73.4397 144.682 66.2583C150.109 62.6664 154.371 58.2984 158.94 53.0069C160.479 51.2256 162.055 49.3359 163.722 47.3366L163.722 47.3364L163.723 47.3358C166.996 43.4108 170.622 39.0637 175.005 34.2849C191.539 16.2613 216.942 16.2707 233.095 26.0784C241.181 30.9876 247.001 38.383 248.2 47.258C249.401 56.1413 245.956 66.387 235.758 76.9593C229.566 83.3779 229.062 93.3333 229.972 105.085C230.225 108.363 230.589 111.777 230.962 115.276L230.962 115.276C231.916 124.235 232.93 133.756 232.316 143.015C231.638 153.237 228.975 163.204 222.058 171.868C224.943 170.127 227.51 168.281 229.794 166.345C241.913 156.072 246.075 143.213 246.965 129.808C247.605 120.164 246.553 110.291 245.552 100.899L245.552 100.899L245.552 100.897L245.552 100.896C245.157 97.1945 244.771 93.5675 244.499 90.059C243.544 77.73 244.003 66.8015 250.873 59.6839C261.457 48.7173 264.898 38.2382 263.688 29.2926C262.478 20.3387 256.592 12.8009 248.277 7.75459ZM60.2016 86.0273C59.056 88.726 58.1695 91.5901 57.5403 94.58C56.0967 96.667 54.8671 98.923 53.8511 101.318C52.5785 104.317 51.6422 107.531 51.0395 110.9C43.5984 114.514 38.3126 120.518 35.1752 127.916C31.8289 135.806 30.9339 145.26 32.4386 155.064C20.0121 157.268 11.667 164.71 7.3867 174.785C2.56925 186.124 2.91636 200.75 8.26767 214.932C18.9806 243.323 49.7846 270.051 99.8298 265.484C129.213 262.803 147.322 255.909 158.289 246.62C169.278 237.312 173.033 225.656 173.833 213.623C173.912 212.436 173.962 211.244 173.987 210.05C179.872 207.41 184.681 204.39 188.594 201.07C193.116 197.233 196.433 193.005 198.833 188.518C205.691 185.591 211.22 182.193 215.657 178.43C217.288 177.047 218.77 175.615 220.116 174.141C224.061 171.97 227.482 169.616 230.44 167.108C242.827 156.608 247.061 143.458 247.963 129.875C248.609 120.138 247.542 110.126 246.538 100.704L246.538 100.703C246.146 97.0217 245.763 93.4309 245.496 89.9818C244.539 77.6219 245.068 67.1389 251.592 60.3784C262.321 49.2619 265.941 38.4925 264.679 29.1586C263.418 19.833 257.299 12.0604 248.796 6.8997C231.806 -3.41101 205.086 -3.42043 187.696 15.527C183.083 20.5534 179.268 25.1253 175.824 29.2536L175.823 29.2537L175.823 29.2542L175.821 29.2563L175.821 29.2568C174.067 31.3587 172.409 33.3456 170.791 35.219C165.981 40.7854 161.494 45.382 155.78 49.1621C144.355 56.7199 127.935 61.0736 94.0531 63.127C76.9155 64.1656 65.6437 73.2071 60.2016 86.0273ZM8.30708 175.176C12.4532 165.417 20.5129 158.199 32.5981 156.051C33.314 160.275 34.4731 164.557 36.0711 168.799C36.4679 169.853 36.8919 170.904 37.3429 171.951C36.9781 172.638 36.6414 173.344 36.3329 174.069C32.7107 182.575 32.9757 193.535 36.9904 204.151C45.0301 225.409 68.1426 245.405 105.663 241.99C127.67 239.986 141.257 234.832 149.495 227.87C153.913 224.137 156.774 219.9 158.573 215.387C163.958 213.967 168.738 212.327 172.976 210.495C172.949 211.518 172.903 212.538 172.835 213.556C172.047 225.411 168.364 236.776 157.643 245.857C146.901 254.955 129.029 261.816 99.7389 264.488C50.1478 269.013 19.7597 242.556 9.20328 214.579C3.91992 200.577 3.61303 186.225 8.30708 175.176ZM159.006 214.237C164.245 212.823 168.888 211.199 172.999 209.394C173.062 204.956 172.791 200.491 172.4 196.086C168.899 196.726 165.201 197.293 161.296 197.784C161.326 199.574 161.294 201.362 161.176 203.136C160.924 206.92 160.28 210.657 159.006 214.237ZM160.299 197.907C160.325 199.633 160.292 201.356 160.178 203.069C159.916 207.011 159.223 210.876 157.826 214.549C149.71 216.655 140.2 218.268 129.068 219.286C80.7447 223.703 50.3518 199.137 38.4543 172C42.2698 165.133 49.081 160.423 58.9876 159.825C60.1854 159.752 61.3509 159.676 62.4852 159.595C78.0654 183.649 108.4 202.756 152.971 198.684C155.491 198.453 157.932 198.194 160.299 197.907ZM161.274 196.779C165.157 196.289 168.832 195.723 172.309 195.086C172.086 192.694 171.833 190.322 171.584 187.983L171.584 187.983V187.982L171.55 187.666C169.262 187.938 166.908 188.184 164.487 188.405C163.225 188.521 161.973 188.618 160.733 188.698C160.987 191.362 161.195 194.07 161.274 196.779ZM159.734 188.76C159.992 191.451 160.202 194.177 160.278 196.903C157.891 197.193 155.426 197.455 152.88 197.688C108.976 201.699 79.0965 183.047 63.6245 159.511C68.8834 159.113 73.4569 158.616 77.4739 158.008C94.62 177.154 122.139 190.923 159.734 188.76ZM160.636 187.703C161.878 187.623 163.131 187.525 164.396 187.409C166.813 187.189 169.162 186.943 171.444 186.672C171.144 183.847 170.859 181.075 170.65 178.381C169.804 167.469 170.207 157.77 176.313 151.45C185.681 141.751 188.719 132.492 187.65 124.597C186.581 116.693 181.38 110.034 174.024 105.574C159.295 96.6428 136.136 96.6523 121.081 113.042C117.007 117.477 113.657 121.488 110.614 125.132L110.614 125.133C109.055 127 107.576 128.77 106.123 130.451C101.843 135.401 97.801 139.546 92.6317 142.963C87.5772 146.303 81.4664 148.934 73.0322 150.962C74.5338 153.001 76.1428 154.996 77.8591 156.937C88.2713 155.314 94.7614 152.932 99.7814 149.621C103.552 147.135 106.516 144.11 109.701 140.434C110.772 139.198 111.87 137.886 113.033 136.497C115.319 133.766 117.855 130.737 120.917 127.411C132.512 114.816 150.322 114.826 161.647 121.677C167.318 125.108 171.416 130.286 172.261 136.515C173.107 142.753 170.675 149.922 163.535 157.297C159.267 161.706 158.904 168.56 159.54 176.737C159.716 179.008 159.969 181.376 160.229 183.806V183.806C160.366 185.089 160.505 186.39 160.636 187.703ZM78.6541 157.823C88.7865 156.189 95.2632 153.799 100.332 150.456C104.216 147.895 107.251 144.789 110.457 141.089C111.548 139.83 112.656 138.506 113.824 137.11C116.101 134.39 118.604 131.399 121.652 128.088C132.876 115.897 150.146 115.888 161.129 122.533C166.612 125.85 170.476 130.794 171.27 136.65C172.063 142.498 169.812 149.376 162.817 156.601C158.203 161.367 157.91 168.669 158.543 176.814C158.724 179.145 158.981 181.549 159.243 184.001C159.376 185.244 159.51 186.5 159.636 187.764C122.695 189.879 95.6265 176.492 78.6541 157.823ZM76.6844 157.114C75.0118 155.194 73.4418 153.223 71.9746 151.211C68.4076 152.029 64.4347 152.745 59.9661 153.367C60.904 155.116 61.9171 156.847 63.0052 158.554C68.1991 158.172 72.7172 157.695 76.6844 157.114ZM61.8733 158.635C60.8134 156.948 59.8255 155.238 58.9096 153.511C52.761 154.332 45.6933 154.981 37.485 155.478C36.1427 155.56 34.8425 155.697 33.5845 155.889C34.2889 160.043 35.43 164.26 37.0069 168.447C37.3093 169.249 37.6277 170.051 37.962 170.85C42.0076 164.049 48.996 159.427 58.9273 158.827C59.9323 158.766 60.914 158.702 61.8733 158.635ZM37.8628 173.13C50.1508 200.361 80.8291 224.699 129.159 220.282C140.004 219.29 149.338 217.734 157.362 215.7C155.604 219.824 152.901 223.683 148.85 227.106C140.837 233.878 127.488 238.998 105.572 240.994C68.5045 244.368 45.8084 224.64 37.9258 203.797C33.9793 193.362 33.7547 182.676 37.2529 174.461C37.4449 174.01 37.6482 173.566 37.8628 173.13ZM187.947 200.307C184.207 203.48 179.618 206.386 174.004 208.945C174.042 204.592 173.771 200.212 173.387 195.902C182.727 194.139 190.645 191.854 197.346 189.136C195.056 193.118 191.995 196.873 187.947 200.307ZM198.115 187.736C191.274 190.622 183.084 193.049 173.296 194.902C173.073 192.5 172.819 190.123 172.57 187.788L172.57 187.787L172.544 187.547C183.31 186.226 192.593 184.355 200.588 182.019C199.909 183.964 199.091 185.873 198.115 187.736ZM200.974 180.862C192.899 183.27 183.46 185.2 172.438 186.552C172.138 183.726 171.854 180.967 171.647 178.303C170.799 167.361 171.272 158.108 177.032 152.144C186.545 142.296 189.762 132.747 188.641 124.463C187.521 116.187 182.087 109.293 174.543 104.719C159.472 95.5806 135.771 95.5711 120.344 112.365C116.256 116.815 112.875 120.864 109.823 124.519L109.823 124.52C108.268 126.381 106.8 128.139 105.366 129.797C101.107 134.723 97.1358 138.787 92.0803 142.128C87.0611 145.446 80.9506 148.066 72.3953 150.086C68.0213 143.988 64.5983 137.522 62.1328 130.983C59.4236 123.797 57.8723 116.528 57.4822 109.563C60.043 108.869 62.8052 108.418 65.7699 108.238C96.3138 106.386 111.324 102.453 121.837 95.4923C127.092 92.0129 131.201 87.7918 135.552 82.7507C137.03 81.039 138.532 79.2366 140.117 77.3357L140.118 77.3339L140.119 77.3335L140.119 77.3331L140.119 77.3328L140.12 77.3318C143.214 73.621 146.62 69.5354 150.761 65.0189C166.072 48.3223 189.624 48.3129 204.602 57.411C212.083 61.9547 217.373 68.7388 218.461 76.7929C219.548 84.8388 216.457 94.2718 206.931 104.151C200.726 110.586 200.316 120.46 201.176 131.573C201.421 134.74 201.769 138.012 202.125 141.351V141.351V141.352V141.352L202.125 141.352C203.026 149.817 203.974 158.712 203.397 167.402C203.092 171.994 202.362 176.514 200.974 180.862ZM61.1971 131.335C63.6482 137.837 67.0319 144.261 71.3404 150.329C67.8175 151.123 63.8899 151.819 59.4695 152.426C58.038 149.668 56.7921 146.87 55.7324 144.058C51.5308 132.908 50.2613 121.549 51.9367 111.58C53.3749 110.909 54.8949 110.328 56.4969 109.845C56.9142 116.854 58.4861 124.145 61.1971 131.335ZM54.7966 144.411C55.8295 147.152 57.0365 149.878 58.4171 152.567C52.388 153.361 45.4612 153.993 37.4246 154.48C36.0489 154.563 34.7158 154.705 33.4252 154.902C31.9469 145.257 32.8343 135.996 36.0959 128.306C39.0471 121.348 43.9479 115.657 50.837 112.119C49.3022 122.118 50.6432 133.388 54.7966 144.411ZM199.55 187.115C205.814 184.335 210.898 181.155 215.01 177.668C215.797 177 216.549 176.321 217.267 175.631C212.752 177.875 207.61 179.899 201.763 181.669C201.15 183.517 200.418 185.335 199.55 187.115ZM202.13 180.511C208.837 178.44 214.579 176.031 219.488 173.345C227.584 164.409 230.593 153.871 231.318 142.949C231.926 133.782 230.927 124.398 229.976 115.47C229.601 111.95 229.233 108.5 228.975 105.162C228.067 93.4414 228.502 83.0406 235.038 76.265C245.092 65.8426 248.357 55.8872 247.209 47.3919C246.06 38.8884 240.473 31.7279 232.576 26.9332C216.765 17.3331 191.904 17.3425 175.742 34.9609C171.372 39.7249 167.778 44.035 164.514 47.9489L164.514 47.9491L164.513 47.95C162.841 49.9549 161.256 51.8558 159.697 53.6605C155.107 58.976 150.775 63.4251 145.234 67.0922C134.149 74.4287 118.321 78.5752 86.0999 80.529C73.4024 81.2989 64.2234 86.7799 58.478 94.983C57.5936 99.2729 57.2456 103.833 57.4332 108.541C59.9993 107.862 62.7579 107.419 65.7094 107.24C96.2266 105.389 111.006 101.464 121.285 94.6585C126.426 91.2543 130.465 87.1143 134.795 82.0972C136.253 80.4091 137.746 78.6181 139.326 76.723L139.327 76.7213L139.327 76.7209L139.328 76.7201C142.431 72.998 145.868 68.8748 150.024 64.343C165.706 47.2411 189.801 47.2504 205.121 56.5563C212.79 61.2145 218.314 68.2335 219.452 76.659C220.591 85.0928 217.321 94.8161 207.65 104.845C201.79 110.923 201.31 120.352 202.173 131.496C202.413 134.603 202.758 137.839 203.111 141.157C204.016 149.653 204.977 158.686 204.395 167.468C204.101 171.898 203.415 176.277 202.13 180.511ZM56.4439 108.818C56.2694 104.813 56.4752 100.907 57.0642 97.1714C56.2048 98.6158 55.4408 100.131 54.7717 101.708C53.6171 104.429 52.7444 107.337 52.1532 110.384C53.5151 109.783 54.9454 109.259 56.4439 108.818Z" fill="white" fill-opacity="0.2" shape-rendering="crispEdges"/>
</g>
<defs>
<filter id="filter0_d_39_3461" x="0" y="0" width="268.919" height="273.996" filterUnits="userSpaceOnUse" color-interpolation-filters="sRGB">
<feFlood flood-opacity="0" result="BackgroundImageFix"/>
<feColorMatrix in="SourceAlpha" type="matrix" values="0 0 0 0 0 0 0 0 0 0 0 0 0 0 0 0 0 0 127 0" result="hardAlpha"/>
<feOffset dy="4"/>
<feGaussianBlur stdDeviation="2"/>
<feComposite in2="hardAlpha" operator="out"/>
<feColorMatrix type="matrix" values="0 0 0 0 0 0 0 0 0 0 0 0 0 0 0 0 0 0 0.25 0"/>
<feBlend mode="normal" in2="BackgroundImageFix" result="effect1_dropShadow_39_3461"/>
<feBlend mode="normal" in="SourceGraphic" in2="effect1_dropShadow_39_3461" result="shape"/>
</filter>
</defs>
</svg>
