<svg width="18" height="18" viewBox="0 0 18 18" fill="none" xmlns="http://www.w3.org/2000/svg">
<path d="M7.31312 10.8723L4.12745 7.68564L4.12739 7.68559C3.928 7.4862 3.65757 7.37418 3.37559 7.37418C3.09361 7.37418 2.82318 7.4862 2.62379 7.68559C2.42439 7.88498 2.31238 8.15541 2.31238 8.43739C2.31238 8.71937 2.42439 8.9898 2.62378 9.18919L6.56084 13.1262L7.31312 10.8723ZM7.31312 10.8723L14.4358 3.74854C14.5345 3.64959 14.6518 3.57108 14.7809 3.51752C14.91 3.46396 15.0483 3.43639 15.1881 3.43639C15.3278 3.43639 15.4662 3.46396 15.5953 3.51752C15.7242 3.571 15.8413 3.64935 15.9399 3.74809C16.0386 3.84669 16.117 3.96378 16.1705 4.09267C16.224 4.22176 16.2516 4.36014 16.2516 4.49989C16.2516 4.63964 16.224 4.77803 16.1705 4.90711C16.117 5.036 16.0386 5.15309 15.9399 5.2517L7.31312 10.8723ZM6.90587 13.3573L6.90586 13.3573C6.77698 13.3038 6.65989 13.2254 6.56129 13.1267L6.90587 13.3573ZM6.90587 13.3573C7.03495 13.4108 7.17333 13.4384 7.31309 13.4384C7.45284 13.4384 7.59123 13.4108 7.72031 13.3573C7.8492 13.3038 7.96629 13.2254 8.06489 13.1267L6.90587 13.3573ZM8.06534 13.1263L15.9394 5.25214L8.06534 13.1263Z" fill="white" stroke="white"/>
</svg>
