<svg width="520" height="353" viewBox="0 0 520 353" fill="none" xmlns="http://www.w3.org/2000/svg">
<path d="M180.867 278.707C183.686 279.193 190.239 277.735 191.794 276.666C202.119 269.472 222.34 257.261 225.471 244.331C225.996 242.114 216.915 237.156 216.177 234.745C211.16 230.176 209.138 228.892 206.494 222.204C198.716 202.429 236.651 181.352 206.319 160.625C184.094 145.44 160.781 147.559 175.053 110.246C189.344 72.9142 180.303 -5.79426 131.927 8.51637C104.161 16.7216 117.713 56.3092 98.5222 76.6085C80.284 95.8968 84.2116 117.538 104.2 138.556C124.188 159.575 108.089 166.108 94.4779 185.572C78.1257 208.943 116.644 225.723 135.077 231.945C149.893 236.923 184.328 259.711 180.867 278.707Z" fill="url(#paint0_linear_8_5)"/>
<path d="M207.952 261.48L208.36 261.033C139.86 197.257 116.605 99.7272 146.199 0.174993L145.615 0C131.596 47.1901 129.419 95.7607 139.296 140.481C149.698 187.497 173.42 229.34 207.952 261.48Z" fill="#FCFDFE"/>
<path d="M86.5449 194.457C112.133 193.932 151.118 205.599 173.439 220.473L173.77 219.968C151.371 205.035 112.23 193.31 86.5255 193.855L86.5449 194.457Z" fill="#FCFDFE"/>
<path d="M194.633 248.803L195.158 248.492C187.983 236.534 187.128 221.406 192.63 203.557C196.655 190.452 203.947 176.219 214.271 161.208L213.766 160.858C203.402 175.908 196.091 190.199 192.047 203.363C186.505 221.406 187.38 236.689 194.633 248.803Z" fill="#FCFDFE"/>
<path d="M138.129 134.084L138.674 133.793C126.308 110.557 101.731 97.8606 83.2979 91.2886L83.1035 91.8524C101.439 98.405 125.86 111.024 138.129 134.084Z" fill="#FCFDFE"/>
<path d="M133.268 74.0419L133.852 74.178C140.424 45.2845 164.301 25.3158 177.95 16.0022L177.6 15.4966C163.892 24.8686 139.899 44.9346 133.268 74.0419Z" fill="#FCFDFE"/>
<path d="M195.022 264.494C197.725 263.6 202.838 259.244 203.694 257.553C209.43 246.353 221.543 226.073 218.218 213.182C217.655 210.985 207.291 210.849 205.502 209.079C198.911 207.407 196.539 207.232 191.055 202.546C174.898 188.76 198.483 152.323 161.968 148.259C135.213 145.284 115.633 158.136 110.694 118.471C105.756 78.8058 60.8014 13.5718 24.811 48.9401C4.16165 69.2394 34.7273 97.8024 27.3192 124.732C20.2806 150.32 33.9107 167.586 61.4236 176.744C88.9366 185.902 77.7953 199.241 74.9371 222.826C71.4955 251.136 113.358 247.85 132.569 244.7C148.046 242.153 189.15 246.1 195.022 264.494Z" fill="url(#paint1_linear_8_5)"/>
<path d="M210.83 236.553L210.985 235.97C120.533 211.86 54.1904 136.69 33.5216 34.9211L32.9189 35.0378C42.7186 83.2779 63.6206 127.182 93.3696 162.025C124.655 198.618 165.253 224.401 210.83 236.553Z" fill="#FCFDFE"/>
<path d="M72.1759 234.434C94.5168 221.932 134.415 213.921 161.112 216.565L161.17 215.962C134.377 213.299 94.3224 221.348 71.8843 233.909L72.1759 234.434Z" fill="#FCFDFE"/>
<path d="M193.116 231.615L193.427 231.09C181.489 223.915 173.614 210.965 170.075 192.61C167.47 179.155 167.198 163.153 169.278 145.07L168.676 144.992C166.595 163.153 166.867 179.194 169.473 192.727C173.07 211.257 181.022 224.343 193.116 231.615Z" fill="#FCFDFE"/>
<path d="M89.3448 156.892L89.6753 156.386C67.8594 141.687 40.1908 142.017 20.8248 144.895L20.922 145.498C40.1714 142.64 67.6844 142.309 89.3448 156.892Z" fill="#FCFDFE"/>
<path d="M56.8348 106.183L57.4181 106.027C49.6406 77.4253 61.3457 48.5901 69.0066 33.9489L68.4622 33.6573C60.7624 48.3957 48.999 77.3864 56.8348 106.183Z" fill="#FCFDFE"/>
<path d="M340.734 349.327C337.914 349.813 331.362 348.355 329.806 347.286C319.482 340.091 299.26 327.881 296.13 314.951C295.605 312.734 304.685 307.776 305.424 305.365C310.44 300.796 312.462 299.512 315.107 292.824C322.884 273.049 284.949 251.972 315.282 231.245C337.506 216.059 360.819 218.179 346.547 180.866C332.256 143.534 341.298 64.8257 389.674 79.1363C417.439 87.3416 403.887 126.929 423.078 147.228C441.316 166.517 437.389 188.158 417.401 209.176C397.412 230.195 413.512 236.728 427.122 256.191C443.475 279.563 404.957 296.343 386.524 302.565C371.708 307.543 337.273 330.331 340.734 349.327Z" fill="url(#paint2_linear_8_5)"/>
<path d="M313.648 332.081L313.24 331.633C381.741 267.858 404.995 170.328 375.402 70.7754L375.985 70.6004C390.004 117.79 392.182 166.361 382.305 211.082C371.902 258.116 348.161 299.959 313.648 332.081Z" fill="#FCFDFE"/>
<path d="M435.056 265.077C409.467 264.552 370.483 276.219 348.161 291.093L347.831 290.588C370.23 275.655 409.37 263.93 435.075 264.475L435.056 265.077Z" fill="#FCFDFE"/>
<path d="M326.967 319.423L326.442 319.112C333.617 307.154 334.473 292.026 328.97 274.177C324.945 261.072 317.654 246.839 307.329 231.828L307.835 231.478C318.198 246.528 325.509 260.819 329.553 273.982C335.095 292.026 334.22 307.309 326.967 319.423Z" fill="#FCFDFE"/>
<path d="M383.471 204.685L382.927 204.393C395.293 181.158 419.87 168.461 438.303 161.889L438.497 162.453C420.162 169.005 395.721 181.644 383.471 204.685Z" fill="#FCFDFE"/>
<path d="M388.332 144.662L387.749 144.798C381.177 115.904 357.3 95.9357 343.65 86.6221L344 86.1166C357.708 95.4885 381.702 115.554 388.332 144.662Z" fill="#FCFDFE"/>
<path d="M326.578 335.094C323.876 334.2 318.762 329.845 317.907 328.153C312.171 316.953 300.057 296.673 303.382 283.782C303.946 281.585 314.309 281.449 316.098 279.68C322.69 278.007 325.062 277.832 330.545 273.146C346.703 259.361 323.117 222.923 359.633 218.859C386.388 215.885 405.967 228.737 410.906 189.072C415.845 149.406 460.799 84.1722 496.789 119.541C517.439 139.84 486.873 168.403 494.281 195.332C501.32 220.92 487.69 238.187 460.177 247.345C432.664 256.503 443.805 269.841 446.663 293.426C450.105 321.737 408.242 318.451 389.032 315.301C373.555 312.753 332.451 316.701 326.578 335.094Z" fill="url(#paint3_linear_8_5)"/>
<path d="M310.771 307.154L310.615 306.57C401.068 282.46 467.41 207.29 488.079 105.522L488.681 105.638C478.882 153.878 457.98 197.782 428.231 232.626C396.946 269.238 356.347 295.021 310.771 307.154Z" fill="#FCFDFE"/>
<path d="M449.424 305.054C427.083 292.552 387.185 284.541 360.489 287.185L360.43 286.582C387.224 283.918 427.278 291.968 449.716 304.529L449.424 305.054Z" fill="#FCFDFE"/>
<path d="M328.464 302.235L328.153 301.71C340.092 294.535 347.967 281.585 351.505 263.23C354.111 249.775 354.383 233.773 352.303 215.69L352.905 215.612C354.986 233.773 354.714 249.814 352.108 263.347C348.53 281.857 340.578 294.943 328.464 302.235Z" fill="#FCFDFE"/>
<path d="M432.255 227.512L431.925 227.006C453.741 212.307 481.409 212.637 500.775 215.515L500.678 216.118C481.429 213.26 453.916 212.91 432.255 227.512Z" fill="#FCFDFE"/>
<path d="M464.766 176.803L464.182 176.647C471.96 148.045 460.255 119.21 452.594 104.569L453.138 104.277C460.838 118.996 472.582 147.987 464.766 176.803Z" fill="#FCFDFE"/>
<path opacity="0.2" d="M64.3987 135.99C91.4644 125.743 121 131.071 144.74 147.676C153.607 104.219 181.392 67.5282 222.632 51.8954C290.18 26.3074 368.208 66.9838 396.926 142.756C404.334 162.278 407.718 182.227 407.543 201.535C411.023 199.377 414.756 197.51 418.703 196.013C455.608 182.033 498.248 204.257 513.939 245.653C529.63 287.049 512.967 333.461 475.518 345.944C455.511 352.613 423.914 352.613 423.914 352.613C423.914 352.613 116.644 328.503 107.156 328.542C69.2985 328.697 32.0831 302.662 16.392 261.286C-3.2074 209.565 18.278 153.47 64.3987 135.99Z" fill="#EB8382"/>
<path d="M55.2599 135.99C82.3257 125.743 111.861 131.071 135.602 147.676C144.468 104.219 172.253 67.5282 213.494 51.8954C281.041 26.3073 359.069 66.9838 387.788 142.756C395.196 162.278 398.579 182.227 398.404 201.535C401.884 199.377 405.618 197.51 409.565 196.013C446.469 182.033 489.109 204.257 504.8 245.653C520.492 287.049 503.284 331.964 466.38 345.944C458.563 348.899 414.776 352.613 414.776 352.613C414.776 352.613 107.505 328.503 98.0168 328.542C60.1598 328.697 22.9444 302.662 7.25327 261.286C-12.3461 209.565 9.13928 153.47 55.2599 135.99Z" fill="#C9CAD6"/>
<defs>
<linearGradient id="paint0_linear_8_5" x1="179.971" y1="19.8961" x2="102.444" y2="515.516" gradientUnits="userSpaceOnUse">
<stop offset="0.00359712" stop-color="#C37A87"/>
<stop offset="1" stop-color="#9571F6"/>
</linearGradient>
<linearGradient id="paint1_linear_8_5" x1="131.396" y1="57.4937" x2="72.341" y2="435.025" gradientUnits="userSpaceOnUse">
<stop stop-color="#FF9085"/>
<stop offset="1" stop-color="#FB6FBB"/>
</linearGradient>
<linearGradient id="paint2_linear_8_5" x1="393.965" y1="87.445" x2="312.828" y2="606.143" gradientUnits="userSpaceOnUse">
<stop offset="0.00359712" stop-color="#C37A87"/>
<stop offset="1" stop-color="#9571F6"/>
</linearGradient>
<linearGradient id="paint3_linear_8_5" x1="421.498" y1="108.024" x2="348.992" y2="571.546" gradientUnits="userSpaceOnUse">
<stop stop-color="#FF9085"/>
<stop offset="1" stop-color="#FB6FBB"/>
</linearGradient>
</defs>
</svg>
