<svg width="496" height="317" viewBox="0 0 496 317" fill="none" xmlns="http://www.w3.org/2000/svg">
<path d="M1.22482 215.276L35.7959 46.9704C42.6595 13.566 74.6057 -6.98613 106.26 2.19134L120.571 6.33288C125.704 7.83005 131.032 8.58835 136.379 8.58835L168.325 8.66613L299.745 8.95779L334.355 9.03555C340.266 9.05499 346.177 8.27726 351.894 6.72175L368.013 2.3469C404.567 -7.54999 442.735 14.9659 451.115 51.9869L494.222 242.711C501.436 274.599 483.295 305.087 452.165 313.836C417.536 323.578 380.126 301.917 370.599 267.191L355.802 213.254C352.73 202.074 342.638 193.965 331.186 193.421L139.256 184.594C128.873 184.107 119.832 190.913 117.09 201.218L104.005 250.411C95.6633 281.735 63.6394 296.882 34.9403 283.562C9.85785 271.896 -4.41388 242.828 1.22482 215.276Z" fill="url(#paint0_linear_39_3340)"/>
<path opacity="0.3" d="M169.433 97.3882L276.335 100.363C285.843 100.635 293.601 91.8467 293.601 80.7249V8.97729L153.314 8.62729V77.575C153.314 88.2691 160.508 97.1354 169.433 97.3882Z" fill="url(#paint1_linear_39_3340)"/>
<path opacity="0.3" d="M81.7804 241.078C82.111 228.517 76.1417 222.062 77.4056 202.871C78.0083 193.907 79.7 168.397 96.5188 155.37C112.618 142.887 134.881 147.864 163.678 154.281C200.776 162.544 199.338 171.43 225.373 175.027C263.327 180.258 276.86 162.817 304.529 171.761C318.314 176.213 328.853 185.041 336.766 194.316C334.958 193.829 333.091 193.518 331.186 193.421L139.256 184.594C128.873 184.108 119.832 190.913 117.09 201.218L104.005 250.411C97.2383 275.824 74.8779 290.601 51.3509 288.151C75.4223 269.077 81.4499 253.036 81.7804 241.078Z" fill="url(#paint2_linear_39_3340)"/>
<path d="M312.656 80.2776C312.656 111.465 338.166 137.559 370.074 138.609C402.467 139.659 429.085 114.557 429.085 82.5136C429.085 50.4703 402.467 24.3378 370.074 24.1628C338.166 23.9684 312.656 49.1092 312.656 80.2776Z" fill="url(#paint3_linear_39_3340)"/>
<path d="M247.539 154.495C247.539 179.694 267.819 201.101 293.096 202.326C318.684 203.571 339.663 183.699 339.663 157.936C339.663 132.173 318.684 110.727 293.096 110.066C267.799 109.385 247.539 129.276 247.539 154.495Z" fill="url(#paint4_linear_39_3340)"/>
<path d="M256.308 154.825C256.308 175.163 272.699 192.429 293.096 193.363C313.687 194.315 330.525 178.313 330.525 157.586C330.525 136.879 313.687 119.612 293.096 119.029C272.699 118.446 256.308 134.468 256.308 154.825Z" fill="url(#paint5_linear_39_3340)"/>
<path d="M263.599 155.233C263.599 169.408 274.993 181.444 289.226 182.124C303.615 182.824 315.417 171.644 315.417 157.158C315.417 142.673 303.615 130.618 289.226 130.229C274.993 129.859 263.599 141.059 263.599 155.233Z" fill="url(#paint6_linear_39_3340)"/>
<path d="M268.538 155.408C268.538 166.841 277.754 176.544 289.226 177.088C300.815 177.633 310.284 168.63 310.284 156.983C310.284 145.337 300.815 135.634 289.226 135.304C277.754 134.954 268.538 143.975 268.538 155.408Z" fill="url(#paint7_linear_39_3340)"/>
<path d="M111.841 148.856C111.841 173.141 130.662 193.732 154.131 194.879C177.872 196.027 197.316 176.855 197.316 152.064C197.316 127.254 177.872 106.644 154.131 106.021C130.662 105.38 111.841 124.571 111.841 148.856Z" fill="url(#paint8_linear_39_3340)"/>
<path d="M119.987 149.167C119.987 168.766 135.192 185.371 154.111 186.246C173.205 187.121 188.838 171.683 188.838 151.753C188.838 131.823 173.225 115.199 154.111 114.654C135.192 114.11 119.987 129.568 119.987 149.167Z" fill="url(#paint9_linear_39_3340)"/>
<path d="M122.943 149.478C122.943 163.653 134.337 175.688 148.57 176.369C162.958 177.069 174.761 165.889 174.761 151.403C174.761 136.917 162.958 124.862 148.57 124.473C134.337 124.123 122.943 135.323 122.943 149.478Z" fill="url(#paint10_linear_39_3340)"/>
<path d="M127.882 149.673C127.882 161.106 137.098 170.808 148.57 171.352C160.158 171.897 169.628 162.894 169.628 151.248C169.628 139.601 160.158 129.898 148.57 129.568C137.098 129.218 127.882 138.24 127.882 149.673Z" fill="url(#paint11_linear_39_3340)"/>
<path d="M312.637 46.1732C316.564 46.2121 319.753 43.0817 319.753 39.154V26.6905C319.753 22.7823 316.564 19.5741 312.637 19.5741C308.728 19.5547 305.54 22.7046 305.54 26.6128V39.0374C305.559 42.9456 308.728 46.1343 312.637 46.1732Z" fill="url(#paint12_linear_39_3340)"/>
<path d="M140.131 44.0928C143.709 44.1317 146.606 41.1374 146.606 37.3847V25.4851C146.606 21.7519 143.709 18.6992 140.131 18.6798C136.554 18.6603 133.676 21.6741 133.676 25.4073V37.268C133.676 41.0013 136.573 44.0539 140.131 44.0928Z" fill="url(#paint13_linear_39_3340)"/>
<path d="M363.968 39.9123L376.198 40.029C379.795 40.0679 382.731 42.965 382.731 46.5038V60.4255C382.731 61.6894 382.342 62.9143 381.642 63.9643L376.12 72.0529C374.915 73.8223 372.873 74.8528 370.696 74.8139L369.49 74.7945C367.312 74.7556 365.29 73.6473 364.085 71.839L358.601 63.6143C357.901 62.5644 357.532 61.3199 357.532 60.0755V46.251C357.493 42.7122 360.39 39.8929 363.968 39.9123Z" fill="url(#paint14_linear_39_3340)"/>
<path d="M363.968 122.607L376.198 122.957C379.795 123.054 382.731 120.274 382.731 116.735V102.813C382.731 101.549 382.342 100.305 381.642 99.2354L376.12 90.9329C374.915 89.1246 372.873 87.9969 370.696 87.958L369.49 87.9386C367.312 87.8997 365.29 88.9302 364.085 90.6801L358.601 98.691C357.901 99.7215 357.532 100.927 357.532 102.191V116.015C357.493 119.554 360.39 122.51 363.968 122.607Z" fill="url(#paint15_linear_39_3340)"/>
<path d="M412.616 76.1167V88.2497C412.616 91.8079 409.642 94.6467 405.986 94.5689L391.675 94.2578C390.392 94.2384 389.128 93.83 388.039 93.1106L379.698 87.5108C377.87 86.2859 376.782 84.2637 376.782 82.1249V80.9388C376.782 78.8 377.87 76.8167 379.698 75.6501L388.039 70.3614C389.109 69.6809 390.373 69.3309 391.675 69.3503L405.986 69.5836C409.642 69.6225 412.616 72.5585 412.616 76.1167Z" fill="url(#paint16_linear_39_3340)"/>
<path d="M328.386 74.6196V86.5192C328.386 90.019 331.244 92.9162 334.763 92.994L348.685 93.3051C349.949 93.3245 351.193 92.994 352.243 92.3134L360.488 87.083C362.296 85.9359 363.385 83.972 363.385 81.8332V80.6471C363.385 78.5083 362.296 76.4862 360.488 75.2807L352.243 69.7392C351.193 69.0198 349.949 68.6309 348.685 68.6114L334.763 68.3781C331.244 68.3392 328.386 71.1391 328.386 74.6196Z" fill="url(#paint17_linear_39_3340)"/>
<path d="M361.246 40.5152L373.476 40.6318C377.073 40.6707 380.009 43.5679 380.009 47.1066V61.0284C380.009 62.2922 379.62 63.5172 378.92 64.5672L373.398 72.6558C372.193 74.4252 370.151 75.4557 367.974 75.4168L366.768 75.3973C364.59 75.3585 362.568 74.2502 361.363 72.4419L355.88 64.2172C355.18 63.1672 354.81 61.9228 354.81 60.6784V46.8538C354.771 43.3151 357.668 40.4957 361.246 40.5152Z" fill="url(#paint18_linear_39_3340)"/>
<path d="M361.246 123.209L373.476 123.559C377.073 123.657 380.009 120.876 380.009 117.337V103.416C380.009 102.152 379.62 100.907 378.92 99.8381L373.398 91.5356C372.193 89.7273 370.151 88.5996 367.974 88.5607L366.768 88.5412C364.59 88.5023 362.568 89.5329 361.363 91.2828L355.88 99.2937C355.18 100.324 354.81 101.53 354.81 102.794V116.618C354.771 120.176 357.668 123.112 361.246 123.209Z" fill="url(#paint19_linear_39_3340)"/>
<path d="M409.875 76.7194V88.8523C409.875 92.4105 406.9 95.2493 403.245 95.1716L388.934 94.8605C387.651 94.841 386.387 94.4327 385.298 93.7133L376.957 88.1135C375.129 86.8885 374.04 84.8664 374.04 82.7275V81.5415C374.04 79.4027 375.129 77.4194 376.957 76.2528L385.298 70.964C386.367 70.2835 387.631 69.9335 388.934 69.953L403.245 70.1863C406.92 70.2252 409.875 73.1612 409.875 76.7194Z" fill="url(#paint20_linear_39_3340)"/>
<path d="M325.644 75.2418V87.1414C325.644 90.6413 328.503 93.5384 332.022 93.6162L345.944 93.9273C347.208 93.9467 348.452 93.6162 349.502 92.9356L357.746 87.7053C359.554 86.5581 360.643 84.5943 360.643 82.4554V81.2693C360.643 79.1305 359.554 77.1084 357.746 75.9029L349.502 70.3614C348.452 69.642 347.208 69.2531 345.944 69.2337L332.022 69.0003C328.503 68.942 325.644 71.7419 325.644 75.2418Z" fill="url(#paint21_linear_39_3340)"/>
<path d="M134.862 76.564C134.862 106.294 111.918 129.665 83.9774 128.751C56.4256 127.857 34.3763 103.63 34.3763 74.639C34.3763 45.6483 56.4256 22.2575 83.9774 22.413C111.918 22.588 134.862 46.8344 134.862 76.564Z" fill="url(#paint22_linear_39_3340)"/>
<path d="M71.2224 42.0705C71.2224 49.5175 76.9194 55.6423 83.9775 55.759C91.0551 55.8562 96.8104 49.848 96.8104 42.3427C96.8104 34.8374 91.0551 28.7126 83.9775 28.6543C76.9389 28.6154 71.2224 34.6041 71.2224 42.0705Z" fill="url(#paint23_linear_39_3340)"/>
<path d="M71.2224 108.646C71.2224 116.093 76.9194 122.315 83.9775 122.548C91.0551 122.762 96.8104 116.871 96.8104 109.365C96.8104 101.86 91.0551 95.6381 83.9775 95.4632C76.9389 95.2882 71.2224 101.18 71.2224 108.646Z" fill="url(#paint24_linear_39_3340)"/>
<path d="M115.788 62.5449C108.613 62.4282 102.819 68.4363 102.819 75.9416C102.819 83.4664 108.613 89.6884 115.788 89.8439C122.982 89.9995 128.834 84.0108 128.834 76.4472C128.834 68.8835 122.982 62.6615 115.788 62.5449Z" fill="url(#paint25_linear_39_3340)"/>
<path d="M52.6731 61.5727C45.7316 61.4561 40.1124 67.367 40.1124 74.7751C40.1124 82.1832 45.7316 88.2885 52.6731 88.4441C59.6339 88.5996 65.3115 82.6887 65.3115 75.2417C65.3115 67.7947 59.6534 61.67 52.6731 61.5727Z" fill="url(#paint26_linear_39_3340)"/>
<path d="M68.5004 42.6733C68.5004 50.1203 74.1974 56.2451 81.2555 56.3617C88.333 56.459 94.0884 50.4508 94.0884 42.9455C94.0884 35.4402 88.333 29.3154 81.2555 29.2571C74.1974 29.2182 68.5004 35.2263 68.5004 42.6733Z" fill="url(#paint27_linear_39_3340)"/>
<path d="M68.5004 109.249C68.5004 116.696 74.1974 122.918 81.2555 123.151C88.333 123.365 94.0884 117.474 94.0884 109.968C94.0884 102.463 88.333 96.2409 81.2555 96.0659C74.1974 95.8909 68.5004 101.782 68.5004 109.249Z" fill="url(#paint28_linear_39_3340)"/>
<path d="M113.065 63.1671C105.891 63.0504 100.096 69.0586 100.096 76.5639C100.096 84.0886 105.891 90.3106 113.065 90.4662C120.26 90.6217 126.112 84.6331 126.112 77.0694C126.112 69.5058 120.26 63.2643 113.065 63.1671Z" fill="url(#paint29_linear_39_3340)"/>
<path d="M49.9509 62.1754C43.0095 62.0587 37.3902 67.9696 37.3902 75.3777C37.3902 82.7664 43.0095 88.8911 49.9509 89.0467C56.9118 89.2022 62.5894 83.2913 62.5894 75.8444C62.5894 68.3974 56.9118 62.2726 49.9509 62.1754Z" fill="url(#paint30_linear_39_3340)"/>
<path opacity="0.3" d="M435.541 292.409C434.452 278.585 415.844 276.543 412.072 259.102C406.9 235.206 438.38 223.092 435.541 197.407C432.76 172.286 400.211 161.903 404.975 146.639C407.328 139.056 415.805 140.203 427.355 129.723C443.591 114.985 447.285 94.18 448.102 88.2302C453.137 51.1703 423.447 23.3851 418.08 18.3492C408.981 9.83279 399.239 4.07742 390.178 0.18866C418.819 2.17193 444.446 22.4518 451.115 51.9675L494.222 242.692C501.436 274.579 483.295 305.067 452.165 313.817C442.288 316.598 432.197 316.811 422.572 314.906C433.48 305.495 435.988 298.048 435.541 292.409Z" fill="url(#paint31_linear_39_3340)"/>
<path opacity="0.3" d="M192.066 72.9279C207.562 64.3726 216.74 74.5612 227.978 66.8225C241.084 57.7812 232.937 40.9234 246.119 30.8904C257.202 22.4518 267.819 30.7348 283.84 24.4351C286.951 23.2101 290.257 21.4407 293.601 18.8547V80.7248C293.601 91.8272 285.843 100.635 276.335 100.363L169.433 97.3882C167.178 97.3298 165.039 96.7076 163.114 95.6577C165.622 94.7632 168.169 93.5966 170.697 92.0995C181.994 85.4108 181.624 78.6832 192.066 72.9279Z" fill="#5488D0"/>
<defs>
<linearGradient id="paint0_linear_39_3340" x1="352.94" y1="-5.2268" x2="158.051" y2="356.71" gradientUnits="userSpaceOnUse">
<stop stop-color="#446381"/>
<stop offset="0.9964" stop-color="#826F8C"/>
</linearGradient>
<linearGradient id="paint1_linear_39_3340" x1="293.601" y1="54.5051" x2="153.318" y2="54.5051" gradientUnits="userSpaceOnUse">
<stop stop-color="#40447E"/>
<stop offset="0.9964" stop-color="#3C3B6B"/>
</linearGradient>
<linearGradient id="paint2_linear_39_3340" x1="133.304" y1="178.593" x2="37.2193" y2="79.7788" gradientUnits="userSpaceOnUse">
<stop stop-color="#446381"/>
<stop offset="0.9964" stop-color="#826F8C"/>
</linearGradient>
<linearGradient id="paint3_linear_39_3340" x1="338.148" y1="134.676" x2="418.219" y2="4.37962" gradientUnits="userSpaceOnUse">
<stop stop-color="#444B8C"/>
<stop offset="0.9964" stop-color="#26264F"/>
</linearGradient>
<linearGradient id="paint4_linear_39_3340" x1="339.669" y1="156.209" x2="247.532" y2="156.209" gradientUnits="userSpaceOnUse">
<stop stop-color="#444B8C"/>
<stop offset="0.9964" stop-color="#26264F"/>
</linearGradient>
<linearGradient id="paint5_linear_39_3340" x1="301.713" y1="79.2312" x2="296.617" y2="126.546" gradientUnits="userSpaceOnUse">
<stop stop-color="#444B8C"/>
<stop offset="0.9964" stop-color="#26264F"/>
</linearGradient>
<linearGradient id="paint6_linear_39_3340" x1="287.352" y1="136.382" x2="295.996" y2="216.14" gradientUnits="userSpaceOnUse">
<stop stop-color="#444B8C"/>
<stop offset="0.9964" stop-color="#26264F"/>
</linearGradient>
<linearGradient id="paint7_linear_39_3340" x1="289.06" y1="126.73" x2="289.846" y2="195.094" gradientUnits="userSpaceOnUse">
<stop stop-color="#444B8C"/>
<stop offset="0.9964" stop-color="#26264F"/>
</linearGradient>
<linearGradient id="paint8_linear_39_3340" x1="197.314" y1="150.454" x2="111.841" y2="150.454" gradientUnits="userSpaceOnUse">
<stop stop-color="#444B8C"/>
<stop offset="0.9964" stop-color="#26264F"/>
</linearGradient>
<linearGradient id="paint9_linear_39_3340" x1="163.689" y1="64.3674" x2="158.594" y2="111.682" gradientUnits="userSpaceOnUse">
<stop stop-color="#444B8C"/>
<stop offset="0.9964" stop-color="#26264F"/>
</linearGradient>
<linearGradient id="paint10_linear_39_3340" x1="146.697" y1="130.642" x2="155.34" y2="210.399" gradientUnits="userSpaceOnUse">
<stop stop-color="#444B8C"/>
<stop offset="0.9964" stop-color="#26264F"/>
</linearGradient>
<linearGradient id="paint11_linear_39_3340" x1="148.405" y1="120.99" x2="149.19" y2="189.353" gradientUnits="userSpaceOnUse">
<stop stop-color="#444B8C"/>
<stop offset="0.9964" stop-color="#26264F"/>
</linearGradient>
<linearGradient id="paint12_linear_39_3340" x1="322.51" y1="4.24399" x2="305.04" y2="55.016" gradientUnits="userSpaceOnUse">
<stop stop-color="#AA80F9"/>
<stop offset="0.9964" stop-color="#6165D7"/>
</linearGradient>
<linearGradient id="paint13_linear_39_3340" x1="167.808" y1="-48.9865" x2="150.338" y2="1.78535" gradientUnits="userSpaceOnUse">
<stop stop-color="#AA80F9"/>
<stop offset="0.9964" stop-color="#6165D7"/>
</linearGradient>
<linearGradient id="paint14_linear_39_3340" x1="311.64" y1="110.906" x2="325.652" y2="97.4401" gradientUnits="userSpaceOnUse">
<stop stop-color="#AA80F9"/>
<stop offset="0.9964" stop-color="#6165D7"/>
</linearGradient>
<linearGradient id="paint15_linear_39_3340" x1="338.311" y1="138.659" x2="352.324" y2="125.193" gradientUnits="userSpaceOnUse">
<stop stop-color="#AA80F9"/>
<stop offset="0.9964" stop-color="#6165D7"/>
</linearGradient>
<linearGradient id="paint16_linear_39_3340" x1="338.368" y1="138.719" x2="352.381" y2="125.253" gradientUnits="userSpaceOnUse">
<stop stop-color="#AA80F9"/>
<stop offset="0.9964" stop-color="#6165D7"/>
</linearGradient>
<linearGradient id="paint17_linear_39_3340" x1="311.761" y1="111.032" x2="325.773" y2="97.5658" gradientUnits="userSpaceOnUse">
<stop stop-color="#AA80F9"/>
<stop offset="0.9964" stop-color="#6165D7"/>
</linearGradient>
<linearGradient id="paint18_linear_39_3340" x1="377.209" y1="48.1938" x2="360.372" y2="48.7899" gradientUnits="userSpaceOnUse">
<stop stop-color="#4499D9"/>
<stop offset="1" stop-color="#6E6CC1"/>
</linearGradient>
<linearGradient id="paint19_linear_39_3340" x1="377.209" y1="96.2451" x2="360.372" y2="96.8392" gradientUnits="userSpaceOnUse">
<stop stop-color="#4499D9"/>
<stop offset="1" stop-color="#6E6CC1"/>
</linearGradient>
<linearGradient id="paint20_linear_39_3340" x1="405.893" y1="75.5009" x2="382.036" y2="77.1631" gradientUnits="userSpaceOnUse">
<stop stop-color="#4499D9"/>
<stop offset="1" stop-color="#6E6CC1"/>
</linearGradient>
<linearGradient id="paint21_linear_39_3340" x1="356.754" y1="74.4838" x2="333.451" y2="76.0881" gradientUnits="userSpaceOnUse">
<stop stop-color="#4499D9"/>
<stop offset="1" stop-color="#6E6CC1"/>
</linearGradient>
<linearGradient id="paint22_linear_39_3340" x1="53.9607" y1="125.693" x2="139.126" y2="-13.3379" gradientUnits="userSpaceOnUse">
<stop stop-color="#444B8C"/>
<stop offset="0.9964" stop-color="#26264F"/>
</linearGradient>
<linearGradient id="paint23_linear_39_3340" x1="14.8557" y1="111.378" x2="33.9634" y2="92.2699" gradientUnits="userSpaceOnUse">
<stop stop-color="#AA80F9"/>
<stop offset="0.9964" stop-color="#6165D7"/>
</linearGradient>
<linearGradient id="paint24_linear_39_3340" x1="48.2499" y1="144.772" x2="67.3577" y2="125.664" gradientUnits="userSpaceOnUse">
<stop stop-color="#AA80F9"/>
<stop offset="0.9964" stop-color="#6165D7"/>
</linearGradient>
<linearGradient id="paint25_linear_39_3340" x1="47.7608" y1="144.283" x2="66.8684" y2="125.175" gradientUnits="userSpaceOnUse">
<stop stop-color="#AA80F9"/>
<stop offset="0.9964" stop-color="#6165D7"/>
</linearGradient>
<linearGradient id="paint26_linear_39_3340" x1="15.6013" y1="112.123" x2="34.709" y2="93.0158" gradientUnits="userSpaceOnUse">
<stop stop-color="#AA80F9"/>
<stop offset="0.9964" stop-color="#6165D7"/>
</linearGradient>
<linearGradient id="paint27_linear_39_3340" x1="91.2453" y1="35.2203" x2="74.1637" y2="36.011" gradientUnits="userSpaceOnUse">
<stop stop-color="#4499D9"/>
<stop offset="1" stop-color="#6E6CC1"/>
</linearGradient>
<linearGradient id="paint28_linear_39_3340" x1="91.2453" y1="102.023" x2="74.1637" y2="102.814" gradientUnits="userSpaceOnUse">
<stop stop-color="#4499D9"/>
<stop offset="1" stop-color="#6E6CC1"/>
</linearGradient>
<linearGradient id="paint29_linear_39_3340" x1="123.222" y1="69.1724" x2="105.855" y2="69.9838" gradientUnits="userSpaceOnUse">
<stop stop-color="#4499D9"/>
<stop offset="1" stop-color="#6E6CC1"/>
</linearGradient>
<linearGradient id="paint30_linear_39_3340" x1="59.7895" y1="68.0865" x2="42.967" y2="68.86" gradientUnits="userSpaceOnUse">
<stop stop-color="#4499D9"/>
<stop offset="1" stop-color="#6E6CC1"/>
</linearGradient>
<linearGradient id="paint31_linear_39_3340" x1="481.691" y1="64.101" x2="286.802" y2="426.038" gradientUnits="userSpaceOnUse">
<stop stop-color="#444B8C"/>
<stop offset="0.9964" stop-color="#26264F"/>
</linearGradient>
</defs>
</svg>
